<mxfile host="app.diagrams.net" agent="Mozilla/5.0 (Windows NT 10.0; Win64; x64) AppleWebKit/537.36 (KHTML, like Gecko) Chrome/131.0.0.0 Safari/537.36" version="25.0.1">
  <diagram name="Página-1" id="0i9zNTjrZn2mg2FyQtSR">
    <mxGraphModel dx="1514" dy="1000" grid="0" gridSize="10" guides="1" tooltips="1" connect="1" arrows="1" fold="1" page="0" pageScale="1" pageWidth="827" pageHeight="1169" math="0" shadow="0">
      <root>
        <mxCell id="0" />
        <mxCell id="1" parent="0" />
        <mxCell id="Ear5156XDGetxcFC-w4R-7" style="edgeStyle=none;curved=1;rounded=0;orthogonalLoop=1;jettySize=auto;html=1;fontSize=12;startSize=8;endSize=8;entryX=0;entryY=0.5;entryDx=0;entryDy=0;exitX=1;exitY=0.3333333333333333;exitDx=0;exitDy=0;exitPerimeter=0;dashed=1;" edge="1" parent="1" source="Ear5156XDGetxcFC-w4R-1" target="Ear5156XDGetxcFC-w4R-2">
          <mxGeometry relative="1" as="geometry">
            <mxPoint x="12" y="40" as="targetPoint" />
            <mxPoint x="-10" y="88" as="sourcePoint" />
          </mxGeometry>
        </mxCell>
        <mxCell id="Ear5156XDGetxcFC-w4R-9" value="&amp;lt;&amp;lt;include&amp;gt;&amp;gt;" style="edgeLabel;html=1;align=center;verticalAlign=middle;resizable=0;points=[];fontSize=12;" vertex="1" connectable="0" parent="Ear5156XDGetxcFC-w4R-7">
          <mxGeometry x="0.3071" y="1" relative="1" as="geometry">
            <mxPoint as="offset" />
          </mxGeometry>
        </mxCell>
        <mxCell id="Ear5156XDGetxcFC-w4R-8" style="edgeStyle=none;curved=1;rounded=0;orthogonalLoop=1;jettySize=auto;html=1;exitX=1;exitY=0.3333333333333333;exitDx=0;exitDy=0;exitPerimeter=0;entryX=0;entryY=0.5;entryDx=0;entryDy=0;fontSize=12;startSize=8;endSize=8;dashed=1;" edge="1" parent="1" source="Ear5156XDGetxcFC-w4R-1" target="Ear5156XDGetxcFC-w4R-3">
          <mxGeometry relative="1" as="geometry" />
        </mxCell>
        <mxCell id="Ear5156XDGetxcFC-w4R-1" value="Familiar/Monitor" style="shape=umlActor;verticalLabelPosition=bottom;verticalAlign=top;html=1;" vertex="1" parent="1">
          <mxGeometry x="-111" y="110" width="30" height="60" as="geometry" />
        </mxCell>
        <mxCell id="Ear5156XDGetxcFC-w4R-22" style="edgeStyle=none;curved=1;rounded=0;orthogonalLoop=1;jettySize=auto;html=1;exitX=1;exitY=0;exitDx=0;exitDy=0;fontSize=12;startSize=8;endSize=8;dashed=1;entryX=0;entryY=0.5;entryDx=0;entryDy=0;" edge="1" parent="1" source="Ear5156XDGetxcFC-w4R-2" target="Ear5156XDGetxcFC-w4R-24">
          <mxGeometry relative="1" as="geometry">
            <mxPoint x="287" y="-20" as="targetPoint" />
          </mxGeometry>
        </mxCell>
        <mxCell id="Ear5156XDGetxcFC-w4R-2" value="Cadastrar Conta" style="ellipse;whiteSpace=wrap;html=1;" vertex="1" parent="1">
          <mxGeometry x="37" y="-19" width="140" height="70" as="geometry" />
        </mxCell>
        <mxCell id="Ear5156XDGetxcFC-w4R-14" style="edgeStyle=none;curved=1;rounded=0;orthogonalLoop=1;jettySize=auto;html=1;exitX=0;exitY=1;exitDx=0;exitDy=0;fontSize=12;startSize=8;endSize=8;entryX=0.457;entryY=0;entryDx=0;entryDy=0;entryPerimeter=0;dashed=1;" edge="1" parent="1" source="Ear5156XDGetxcFC-w4R-3" target="Ear5156XDGetxcFC-w4R-16">
          <mxGeometry relative="1" as="geometry">
            <mxPoint x="14" y="230" as="targetPoint" />
          </mxGeometry>
        </mxCell>
        <mxCell id="Ear5156XDGetxcFC-w4R-15" style="edgeStyle=none;curved=1;rounded=0;orthogonalLoop=1;jettySize=auto;html=1;exitX=1;exitY=1;exitDx=0;exitDy=0;fontSize=12;startSize=8;endSize=8;entryX=0.5;entryY=0;entryDx=0;entryDy=0;dashed=1;" edge="1" parent="1" source="Ear5156XDGetxcFC-w4R-3" target="Ear5156XDGetxcFC-w4R-17">
          <mxGeometry relative="1" as="geometry">
            <mxPoint x="198" y="221" as="targetPoint" />
          </mxGeometry>
        </mxCell>
        <mxCell id="Ear5156XDGetxcFC-w4R-3" value="Cadastrar Idosos" style="ellipse;whiteSpace=wrap;html=1;" vertex="1" parent="1">
          <mxGeometry x="34" y="89" width="140" height="70" as="geometry" />
        </mxCell>
        <mxCell id="Ear5156XDGetxcFC-w4R-10" value="&amp;lt;&amp;lt;include&amp;gt;&amp;gt;" style="edgeLabel;html=1;align=center;verticalAlign=middle;resizable=0;points=[];fontSize=12;" vertex="1" connectable="0" parent="1">
          <mxGeometry x="-23.003672760388607" y="127.00216165600827" as="geometry" />
        </mxCell>
        <mxCell id="Ear5156XDGetxcFC-w4R-16" value="Inserir Informações" style="ellipse;whiteSpace=wrap;html=1;" vertex="1" parent="1">
          <mxGeometry x="-57" y="230" width="140" height="70" as="geometry" />
        </mxCell>
        <mxCell id="Ear5156XDGetxcFC-w4R-17" value="Adicionar rotina" style="ellipse;whiteSpace=wrap;html=1;" vertex="1" parent="1">
          <mxGeometry x="133" y="225" width="140" height="70" as="geometry" />
        </mxCell>
        <mxCell id="Ear5156XDGetxcFC-w4R-23" value="&amp;lt;&amp;lt;include&amp;gt;&amp;gt;" style="edgeLabel;html=1;align=center;verticalAlign=middle;resizable=0;points=[];fontSize=12;" vertex="1" connectable="0" parent="1">
          <mxGeometry x="173.9986667181413" y="-33.004077629525625" as="geometry" />
        </mxCell>
        <mxCell id="Ear5156XDGetxcFC-w4R-24" value="Validar Email" style="ellipse;whiteSpace=wrap;html=1;" vertex="1" parent="1">
          <mxGeometry x="203" y="-101" width="140" height="70" as="geometry" />
        </mxCell>
        <mxCell id="Ear5156XDGetxcFC-w4R-26" value="&amp;lt;&amp;lt;extend&amp;gt;&amp;gt;" style="edgeLabel;html=1;align=center;verticalAlign=middle;resizable=0;points=[];fontSize=12;" vertex="1" connectable="0" parent="1">
          <mxGeometry x="176.9963272396114" y="177.00216165600827" as="geometry" />
        </mxCell>
        <mxCell id="Ear5156XDGetxcFC-w4R-27" value="&amp;lt;&amp;lt;extend&amp;gt;&amp;gt;" style="edgeLabel;html=1;align=center;verticalAlign=middle;resizable=0;points=[];fontSize=12;" vertex="1" connectable="0" parent="1">
          <mxGeometry x="36.99632723961139" y="181.00216165600827" as="geometry">
            <mxPoint x="2" y="-2" as="offset" />
          </mxGeometry>
        </mxCell>
      </root>
    </mxGraphModel>
  </diagram>
</mxfile>
